<svg width="110" height="82" viewBox="0 0 110 82" fill="none" xmlns="http://www.w3.org/2000/svg">
<path d="M69.467 21.9993H64.535C64.2418 21.9993 64 21.7527 64 21.4539V16.5454C64 16.2465 64.2418 16 64.535 16H69.467C69.7601 16 70.002 16.2465 70.002 16.5454V21.4539C70.002 21.7602 69.7601 21.9993 69.467 21.9993ZM65.07 20.916H68.932V17.0982H65.07V20.916Z" fill="#CCCCCC"/>
<path d="M65.07 20.9159H68.932V17.0981H65.07V20.9159Z" fill="#CCCCCC"/>
<path d="M78.4658 21.9993H73.5373C73.244 21.9993 73.002 21.7527 73.002 21.4539V16.5454C73.002 16.2465 73.244 16 73.5373 16H78.4658C78.7592 16 79.0012 16.2465 79.0012 16.5454V21.4539C79.0012 21.7602 78.7665 21.9993 78.4658 21.9993ZM74.0727 20.916H77.9378V17.0982H74.0727V20.916Z" fill="#CCCCCC"/>
<path d="M74.0727 20.9159H77.9378V17.0981H74.0727V20.9159Z" fill="#CCCCCC"/>
<path d="M87.4682 21.9993H82.5362C82.2431 21.9993 82.0012 21.7527 82.0012 21.4539V16.5454C82.0012 16.2465 82.2431 16 82.5362 16H87.4682C87.7614 16 88.0032 16.2465 88.0032 16.5454V21.4539C88.0032 21.7602 87.7687 21.9993 87.4682 21.9993ZM83.0785 20.916H86.9406V17.0982H83.0785V20.916Z" fill="#CCCCCC"/>
<path d="M83.0785 20.9159H86.9406V17.0981H83.0785V20.9159Z" fill="#CCCCCC"/>
<path d="M54.7926 45.7145C52.1717 45.7145 50.0476 43.5819 50.0476 40.961C50.0476 38.3402 52.1803 36.2075 54.7926 36.2075C57.4134 36.2075 59.5375 38.3402 59.5375 40.961C59.5375 43.5819 57.4049 45.7145 54.7926 45.7145ZM54.7926 37.458C52.8655 37.458 51.2895 39.0339 51.2895 40.961C51.2895 42.8967 52.8569 44.464 54.7926 44.464C56.7197 44.464 58.287 42.8967 58.287 40.961C58.287 39.0339 56.7197 37.458 54.7926 37.458Z" fill="#FE1113"/>
<path d="M54.7926 37.458C52.8655 37.458 51.2895 39.0339 51.2895 40.961C51.2895 42.8967 52.8569 44.464 54.7926 44.464C56.7197 44.464 58.287 42.8967 58.287 40.961C58.287 39.0339 56.7197 37.458 54.7926 37.458Z" fill="#FE1113"/>
<path d="M63.3976 57.4537H46.6106C46.276 57.4537 46 57.1655 46 56.8162C46 53.9341 46.9786 51.5061 48.8271 49.7943C50.4581 48.2834 52.6496 47.4537 54.9999 47.4537C57.3503 47.4537 59.5417 48.2834 61.1727 49.7943C63.0045 51.4887 63.9831 53.8991 63.9998 56.7463C63.9998 56.7638 63.9998 56.79 63.9998 56.8074C64.0082 57.1655 63.7321 57.4537 63.3976 57.4537ZM47.2379 56.1786H62.7619C62.4691 51.0607 58.5965 48.7288 54.9999 48.7288C51.4033 48.7201 47.539 51.0607 47.2379 56.1786Z" fill="#FE1113"/>
<path d="M47.2379 56.1786H62.7619C62.4691 51.0607 58.5965 48.7288 54.9999 48.7288C51.4033 48.7201 47.539 51.0607 47.2379 56.1786Z" fill="#FE1113"/>
<path fill-rule="evenodd" clip-rule="evenodd" d="M20 11H90C91.6569 11 93 12.3431 93 14V70C93 71.6569 91.6569 73 90 73H20C18.3431 73 17 71.6569 17 70V14C17 12.3431 18.3431 11 20 11ZM20 13C19.4477 13 19 13.4477 19 14V70C19 70.5523 19.4477 71 20 71H90C90.5523 71 91 70.5523 91 70V14C91 13.4477 90.5523 13 90 13H20Z" fill="#4A4A4A"/>
<path d="M92 25H18V27H92V25Z" fill="#4A4A4A"/>
</svg>
