<svg width="110" height="82" viewBox="0 0 110 82" fill="none" xmlns="http://www.w3.org/2000/svg">
<path fill-rule="evenodd" clip-rule="evenodd" d="M20 11H90C91.6569 11 93 12.3431 93 14V70C93 71.6569 91.6569 73 90 73H20C18.3431 73 17 71.6569 17 70V14C17 12.3431 18.3431 11 20 11ZM20 13C19.4477 13 19 13.4477 19 14V70C19 70.5523 19.4477 71 20 71H90C90.5523 71 91 70.5523 91 70V14C91 13.4477 90.5523 13 90 13H20Z" fill="#4A4A4A"/>
<path d="M92 25H18V27H92V25Z" fill="#4A4A4A"/>
<path d="M69.467 21.9993H64.535C64.2418 21.9993 64 21.7527 64 21.4539V16.5454C64 16.2465 64.2418 16 64.535 16H69.467C69.7601 16 70.002 16.2465 70.002 16.5454V21.4539C70.002 21.7602 69.7601 21.9993 69.467 21.9993ZM65.07 20.916H68.932V17.0982H65.07V20.916Z" fill="#CCCCCC"/>
<path d="M65.07 20.9159H68.932V17.0981H65.07V20.9159Z" fill="#CCCCCC"/>
<path d="M78.4658 21.9993H73.5373C73.244 21.9993 73.002 21.7527 73.002 21.4539V16.5454C73.002 16.2465 73.244 16 73.5373 16H78.4658C78.7592 16 79.0012 16.2465 79.0012 16.5454V21.4539C79.0012 21.7602 78.7665 21.9993 78.4658 21.9993ZM74.0727 20.916H77.9378V17.0982H74.0727V20.916Z" fill="#CCCCCC"/>
<path d="M74.0727 20.9159H77.9378V17.0981H74.0727V20.9159Z" fill="#CCCCCC"/>
<path d="M87.4682 21.9993H82.5362C82.2431 21.9993 82.0012 21.7527 82.0012 21.4539V16.5454C82.0012 16.2465 82.2431 16 82.5362 16H87.4682C87.7614 16 88.0032 16.2465 88.0032 16.5454V21.4539C88.0032 21.7602 87.7687 21.9993 87.4682 21.9993ZM83.0785 20.916H86.9406V17.0982H83.0785V20.916Z" fill="#CCCCCC"/>
<path d="M83.0785 20.9159H86.9406V17.0981H83.0785V20.9159Z" fill="#CCCCCC"/>
<path fill-rule="evenodd" clip-rule="evenodd" d="M19.8098 10.6785C21.3826 6.76481 25.2277 4 29.7234 4C35.3456 4 39.9515 8.3254 40.3643 13.8155C45.7712 14.3348 50 18.8654 50 24.3826C50 29.8886 45.7879 34.4115 40.3969 34.9462V35H14.6342C9.86681 35 6 31.1553 6 26.4103C6 23.363 7.59977 20.6958 10.0011 19.1722C9.99954 19.1379 9.99849 19.1041 9.99849 19.0739C9.99849 14.3811 13.8229 10.5784 18.5376 10.5784C18.9741 10.5784 19.3987 10.6171 19.8098 10.6785Z" fill="#CCCCCC"/>
<path d="M17.1962 27.1638C17.2306 26.7096 17.403 25.9908 17.5968 25.4968C18.0492 24.3282 18.7773 23.4727 20.324 22.2908C21.2158 21.6117 21.6208 21.2148 21.7888 20.862C21.9353 20.5621 21.9396 20.0241 21.8017 19.7551C21.5949 19.3626 21.233 19.173 20.5911 19.1377C19.9492 19.1024 19.2211 19.2568 18.424 19.6096C18.1052 19.7463 18.0104 19.7728 17.9717 19.7287C17.9458 19.7022 17.8209 19.3715 17.6959 18.9966C17.4848 18.3748 17.4719 18.3131 17.5365 18.2646C17.683 18.1543 18.5447 17.8324 19.0143 17.7089C19.7294 17.5237 20.156 17.4796 20.9444 17.5061C21.7328 17.5325 22.0171 17.5898 22.56 17.8544C23.581 18.3528 24.0894 19.4949 23.8352 20.7253C23.6586 21.5764 23.1416 22.2423 21.8534 23.2566C20.897 24.0151 20.5135 24.3591 20.2335 24.6986C20.0052 24.9765 19.6864 25.5277 19.6174 25.7703L19.5873 25.8717L21.7759 25.8805L23.9645 25.8937L23.9774 26.7008L23.986 27.5034H17.166L17.1962 27.1638ZM28.3374 26.3127V25.122L26.2177 25.1132L24.0937 25.1L24.0851 24.4605L24.0765 23.8211L26.4546 20.668L28.8328 17.5149H30.1684L30.1813 20.5224L30.1899 23.5344L30.9137 23.5432L31.6332 23.5565V25.1L30.9137 25.1132L30.1899 25.122V27.5034H28.3374V26.3127ZM27.5102 23.5344H28.3374V22.7759C28.3417 22.357 28.3589 21.6867 28.3804 21.2854C28.402 20.8841 28.4149 20.5577 28.4063 20.5489C28.3934 20.5313 26.2263 23.5212 26.2263 23.5609C26.2263 23.5785 26.3297 23.5785 26.4546 23.5609C26.5796 23.5432 27.0535 23.5344 27.5102 23.5344ZM36.8246 25.4263C35.5925 25.2808 34.4594 24.4605 33.8864 23.2919C33.7977 23.0982 33.72 22.8994 33.6537 22.6965C33.546 22.3526 33.5331 22.2644 33.5331 21.6161C33.5288 20.787 33.5977 20.4651 33.9209 19.8257C34.7911 18.1014 36.7945 17.29 38.5652 17.947C39.7586 18.3925 40.7495 19.5567 40.939 20.7341C41.0209 21.2501 41.0209 21.9557 40.9347 22.454C40.7279 23.7064 39.6379 24.9015 38.3541 25.294C38.087 25.3734 37.3847 25.4836 37.2124 25.4704C37.1779 25.466 37.0013 25.4483 36.8246 25.4263ZM37.85 24.5708C38.2377 24.487 38.7763 24.24 39.108 23.9798C39.8016 23.4462 40.2411 22.5246 40.2411 21.5941C40.2451 20.7873 39.9344 20.0123 39.3779 19.441C38.8214 18.8697 38.0652 18.5494 37.277 18.5512C36.1459 18.5436 35.1121 19.205 34.6231 20.249C34.3948 20.7297 34.3129 21.0913 34.3129 21.5941C34.3119 22.497 34.7035 23.3536 35.3814 23.9313C35.5717 24.0735 35.7735 24.1989 35.9845 24.3062C36.6092 24.6193 37.1951 24.7031 37.85 24.5708Z" fill="white"/>
<path d="M37.0414 22.1603C37.0291 22.1254 37.025 21.563 37.0291 20.9047L37.0414 19.7058H37.6162L37.6285 20.63L37.6367 21.5586L38.5112 21.5674L39.3816 21.5804V22.1908L38.2197 22.2039C37.3083 22.2126 37.0538 22.2039 37.0414 22.1603Z" fill="white"/>
<path d="M36.3091 48.9028C34.1305 48.9028 32.3647 47.13 32.3647 44.9514C32.3647 42.7728 34.1376 41 36.3091 41C38.4877 41 40.2534 42.7728 40.2534 44.9514C40.2534 47.13 38.4806 48.9028 36.3091 48.9028ZM36.3091 42.0395C34.7071 42.0395 33.3971 43.3495 33.3971 44.9514C33.3971 46.5605 34.7 47.8634 36.3091 47.8634C37.911 47.8634 39.2139 46.5605 39.2139 44.9514C39.2139 43.3495 37.911 42.0395 36.3091 42.0395Z" fill="#CCCCCC"/>
<path d="M36.3091 42.0396C34.7071 42.0396 33.3971 43.3496 33.3971 44.9515C33.3971 46.5606 34.7 47.8634 36.3091 47.8634C37.911 47.8634 39.2139 46.5606 39.2139 44.9515C39.2139 43.3496 37.911 42.0396 36.3091 42.0396Z" fill="#CCCCCC"/>
<path d="M43.462 58.6613H29.5075C29.2294 58.6613 29 58.4217 29 58.1313C29 55.7355 29.8135 53.7172 31.3501 52.2943C32.7059 51.0383 34.5276 50.3486 36.4813 50.3486C38.4351 50.3486 40.2567 51.0383 41.6126 52.2943C43.1352 53.7027 43.9487 55.7065 43.9626 58.0732C43.9626 58.0877 43.9626 58.1095 43.9626 58.124C43.9696 58.4217 43.7401 58.6613 43.462 58.6613ZM30.029 57.6013H42.9336C42.6902 53.347 39.4711 51.4086 36.4813 51.4086C33.4916 51.4013 30.2793 53.347 30.029 57.6013Z" fill="#CCCCCC"/>
<path d="M30.029 57.6013H42.9336C42.6902 53.347 39.4711 51.4086 36.4813 51.4086C33.4916 51.4013 30.2793 53.347 30.029 57.6013Z" fill="#CCCCCC"/>
<path d="M55.3091 48.9028C53.1305 48.9028 51.3647 47.13 51.3647 44.9514C51.3647 42.7728 53.1376 41 55.3091 41C57.4877 41 59.2534 42.7728 59.2534 44.9514C59.2534 47.13 57.4806 48.9028 55.3091 48.9028ZM55.3091 42.0395C53.7071 42.0395 52.3971 43.3495 52.3971 44.9514C52.3971 46.5605 53.7 47.8634 55.3091 47.8634C56.911 47.8634 58.2139 46.5605 58.2139 44.9514C58.2139 43.3495 56.911 42.0395 55.3091 42.0395Z" fill="#FE1113"/>
<path d="M55.3091 42.0396C53.7071 42.0396 52.3971 43.3496 52.3971 44.9515C52.3971 46.5606 53.7 47.8634 55.3091 47.8634C56.911 47.8634 58.2139 46.5606 58.2139 44.9515C58.2139 43.3496 56.911 42.0396 55.3091 42.0396Z" fill="#FE1113"/>
<path d="M62.462 58.6613H48.5075C48.2294 58.6613 48 58.4217 48 58.1313C48 55.7355 48.8135 53.7172 50.3501 52.2943C51.7059 51.0383 53.5276 50.3486 55.4813 50.3486C57.4351 50.3486 59.2567 51.0383 60.6126 52.2943C62.1352 53.7027 62.9487 55.7065 62.9626 58.0732C62.9626 58.0877 62.9626 58.1095 62.9626 58.124C62.9696 58.4217 62.7401 58.6613 62.462 58.6613ZM49.029 57.6013H61.9336C61.6902 53.347 58.4711 51.4086 55.4813 51.4086C52.4916 51.4013 49.2793 53.347 49.029 57.6013Z" fill="#FE1113"/>
<path d="M49.029 57.6013H61.9336C61.6902 53.347 58.4711 51.4086 55.4813 51.4086C52.4916 51.4013 49.2793 53.347 49.029 57.6013Z" fill="#FE1113"/>
<path d="M74.3091 48.9028C72.1305 48.9028 70.3647 47.13 70.3647 44.9514C70.3647 42.7728 72.1376 41 74.3091 41C76.4877 41 78.2534 42.7728 78.2534 44.9514C78.2534 47.13 76.4806 48.9028 74.3091 48.9028ZM74.3091 42.0395C72.7071 42.0395 71.3971 43.3495 71.3971 44.9514C71.3971 46.5605 72.7 47.8634 74.3091 47.8634C75.911 47.8634 77.2139 46.5605 77.2139 44.9514C77.2139 43.3495 75.911 42.0395 74.3091 42.0395Z" fill="#CCCCCC"/>
<path d="M74.3091 42.0396C72.7071 42.0396 71.3971 43.3496 71.3971 44.9515C71.3971 46.5606 72.7 47.8634 74.3091 47.8634C75.911 47.8634 77.2139 46.5606 77.2139 44.9515C77.2139 43.3496 75.911 42.0396 74.3091 42.0396Z" fill="#CCCCCC"/>
<path d="M81.462 58.6613H67.5075C67.2294 58.6613 67 58.4217 67 58.1313C67 55.7355 67.8135 53.7172 69.3501 52.2943C70.7059 51.0383 72.5276 50.3486 74.4813 50.3486C76.4351 50.3486 78.2567 51.0383 79.6126 52.2943C81.1352 53.7027 81.9487 55.7065 81.9626 58.0732C81.9626 58.0877 81.9626 58.1095 81.9626 58.124C81.9696 58.4217 81.7401 58.6613 81.462 58.6613ZM68.029 57.6013H80.9336C80.6902 53.347 77.4711 51.4086 74.4813 51.4086C71.4916 51.4013 68.2793 53.347 68.029 57.6013Z" fill="#CCCCCC"/>
<path d="M68.029 57.6013H80.9336C80.6902 53.347 77.4711 51.4086 74.4813 51.4086C71.4916 51.4013 68.2793 53.347 68.029 57.6013Z" fill="#CCCCCC"/>
</svg>
