<svg width="110" height="82" viewBox="0 0 110 82" fill="none" xmlns="http://www.w3.org/2000/svg">
<path d="M57.8172 35.3H52.1943C51.9319 35.3 51.7154 35.0836 51.7154 34.8213V31.7658C50.5606 31.4641 49.4518 31.0051 48.4152 30.3953L46.2566 32.5526C46.1648 32.6444 46.0466 32.6903 45.922 32.6903C45.7973 32.6903 45.6727 32.6379 45.5808 32.5526L41.6048 28.579C41.4145 28.3889 41.4145 28.0872 41.6048 27.9037L43.77 25.7398C43.1598 24.7038 42.7005 23.6022 42.3987 22.4416H39.3413C39.0788 22.4416 38.8623 22.2253 38.8623 21.963V16.337C38.8623 16.0747 39.0788 15.8584 39.3413 15.8584H42.3987C42.7005 14.6978 43.1598 13.5896 43.77 12.5536L41.6114 10.3963C41.4211 10.2128 41.4211 9.90457 41.6114 9.72097L45.5874 5.7474C45.6792 5.65561 45.7973 5.60969 45.9286 5.60969C46.0532 5.60969 46.1779 5.66216 46.2632 5.7474L48.4217 7.90466C49.4584 7.29485 50.5672 6.83586 51.7219 6.53424V3.47865C51.7219 3.21637 51.9385 3 52.2009 3H57.8237C58.0861 3 58.3027 3.21637 58.3027 3.47865V6.5408C59.4574 6.84243 60.5662 7.30142 61.6029 7.91122L63.7615 5.75395C63.8533 5.66215 63.9714 5.61626 64.1026 5.61626C64.2273 5.61626 64.352 5.66871 64.4438 5.75395L68.4198 9.72752C68.6101 9.91111 68.6101 10.2193 68.4198 10.4029L66.2612 12.5602C66.8714 13.5962 67.3307 14.7043 67.6325 15.8649H70.6833C70.9458 15.8649 71.1623 16.0813 71.1623 16.3436V21.9695C71.1623 22.2318 70.9458 22.4482 70.6833 22.4482H67.6325C67.3307 23.6088 66.8714 24.7169 66.2612 25.7464L68.4263 27.9102C68.6101 28.1004 68.6101 28.402 68.4263 28.5856L64.4504 32.5592C64.3585 32.651 64.2404 32.6969 64.1092 32.6969C63.9845 32.6969 63.8599 32.6444 63.768 32.5592L61.6094 30.4019C60.5728 31.0117 59.4705 31.4707 58.3092 31.7723V34.8279C58.2895 35.0836 58.0796 35.3 57.8172 35.3ZM52.6667 34.3427H57.3382V31.392C57.3382 31.1691 57.4891 30.9789 57.7122 30.9265C59.0244 30.6248 60.2644 30.1068 61.4126 29.3921C61.6029 29.2741 61.8456 29.3003 62.0031 29.4577L64.0895 31.5428L67.3897 28.2446L65.3033 26.1529C65.1458 25.9956 65.1196 25.753 65.2377 25.5628C65.9528 24.4219 66.4712 23.176 66.773 21.8581C66.8255 21.6417 67.0157 21.4843 67.2388 21.4843H70.1913V16.8157H67.2388C67.0157 16.8157 66.8189 16.6583 66.773 16.4419C66.4712 15.1305 65.9594 13.8847 65.2377 12.7372C65.1196 12.5471 65.1458 12.3044 65.3033 12.1471L67.3897 10.0619L64.0895 6.76374L62.0031 8.84887C61.8456 9.00624 61.5963 9.03248 61.4126 8.91445C60.2644 8.19973 59.0244 7.68173 57.7122 7.3801C57.4957 7.32765 57.3382 7.1375 57.3382 6.91456V3.96389H52.6733V6.91456C52.6733 7.1375 52.5224 7.32765 52.2993 7.3801C50.9871 7.68173 49.7471 8.19973 48.5989 8.91445C48.4086 9.03248 48.1659 9.00624 48.0084 8.84887L45.922 6.76374L42.6218 10.0619L44.7082 12.1471C44.8657 12.3044 44.8919 12.5536 44.7738 12.7372C44.0587 13.8781 43.5403 15.124 43.2385 16.4419C43.186 16.6583 42.9958 16.8157 42.7727 16.8157H39.8202V21.4843H42.7727C42.9958 21.4843 43.186 21.6417 43.2385 21.8581C43.5403 23.1695 44.0521 24.4153 44.7738 25.5562C44.8919 25.7464 44.8657 25.989 44.7082 26.1464L42.6152 28.2381L45.9154 31.5363L48.0018 29.4511C48.1593 29.2938 48.4086 29.2675 48.5923 29.3855C49.7405 30.1068 50.9871 30.6248 52.2928 30.9199C52.5093 30.9724 52.6667 31.1625 52.6667 31.3855V34.3427Z" fill="#CCCCCC"/>
<path d="M52.6667 34.3427H57.3382V31.392C57.3382 31.1691 57.4891 30.9789 57.7122 30.9265C59.0244 30.6248 60.2644 30.1068 61.4126 29.3921C61.6029 29.2741 61.8456 29.3003 62.0031 29.4577L64.0895 31.5428L67.3897 28.2446L65.3033 26.1529C65.1458 25.9956 65.1196 25.753 65.2377 25.5628C65.9528 24.4219 66.4712 23.176 66.773 21.8581C66.8255 21.6417 67.0157 21.4843 67.2388 21.4843H70.1913V16.8157H67.2388C67.0157 16.8157 66.8189 16.6583 66.773 16.4419C66.4712 15.1305 65.9594 13.8847 65.2377 12.7372C65.1196 12.5471 65.1458 12.3044 65.3033 12.1471L67.3897 10.0619L64.0895 6.76372L62.0031 8.84885C61.8456 9.00622 61.5963 9.03246 61.4126 8.91443C60.2644 8.19971 59.0244 7.68171 57.7122 7.38008C57.4957 7.32763 57.3382 7.13748 57.3382 6.91454V3.96387H52.6733V6.91454C52.6733 7.13748 52.5224 7.32763 52.2993 7.38008C50.9871 7.68171 49.7471 8.19971 48.5989 8.91443C48.4086 9.03246 48.1659 9.00622 48.0084 8.84885L45.922 6.76372L42.6218 10.0619L44.7082 12.1471C44.8657 12.3044 44.8919 12.5536 44.7738 12.7372C44.0587 13.8781 43.5403 15.124 43.2385 16.4419C43.186 16.6583 42.9958 16.8157 42.7727 16.8157H39.8202V21.4843H42.7727C42.9958 21.4843 43.186 21.6417 43.2385 21.8581C43.5403 23.1695 44.0521 24.4153 44.7738 25.5562C44.8919 25.7464 44.8657 25.989 44.7082 26.1464L42.6152 28.2381L45.9154 31.5363L48.0018 29.4511C48.1593 29.2938 48.4086 29.2675 48.5923 29.3855C49.7405 30.1068 50.9871 30.6248 52.2928 30.9199C52.5093 30.9724 52.6667 31.1625 52.6667 31.3855V34.3427Z" fill="#CCCCCC"/>
<path d="M26 20.2501C26 19.6533 26.235 19.081 26.6534 18.659C27.0717 18.2371 27.6391 18 28.2308 18H81.7692C82.3609 18 82.9283 18.2371 83.3466 18.659C83.765 19.081 84 19.6533 84 20.2501V29.2504C83.9999 29.8053 83.7965 30.3406 83.4289 30.7535L63.9231 52.6153V58.2515C63.9227 58.7235 63.7752 59.1835 63.5013 59.5663C63.2275 59.9491 62.8413 60.2354 62.3972 60.3845L49.0126 64.8847C48.6774 64.9973 48.3205 65.028 47.9713 64.9743C47.6221 64.9205 47.2905 64.7839 47.0038 64.5756C46.7172 64.3673 46.4836 64.0934 46.3225 63.7763C46.1614 63.4591 46.0772 63.108 46.0769 62.7516V52.6153L26.5711 30.7535C26.2035 30.3406 26.0001 29.8053 26 29.2504V20.2501Z" fill="white"/>
<path fill-rule="evenodd" clip-rule="evenodd" d="M83.4289 30.7535L63.9231 52.6153V58.2515C63.9227 58.7235 63.7752 59.1835 63.5013 59.5663C63.2275 59.9491 62.8413 60.2354 62.3972 60.3845L49.0126 64.8847C48.6774 64.9973 48.3205 65.028 47.9713 64.9743C47.6221 64.9205 47.2905 64.7839 47.0038 64.5756C46.7172 64.3673 46.4836 64.0934 46.3225 63.7763C46.1614 63.4591 46.0772 63.108 46.0769 62.7516V52.6153L26.5711 30.7535C26.2035 30.3406 26.0001 29.8053 26 29.2504V20.2501C26 19.6533 26.235 19.081 26.6534 18.659C27.0717 18.2371 27.6391 18 28.2308 18H81.7692C82.3609 18 82.9283 18.2371 83.3466 18.659C83.765 19.081 84 19.6533 84 20.2501V29.2504C83.9999 29.8053 83.7965 30.3406 83.4289 30.7535ZM82 29.2504C81.9999 29.3168 81.9751 29.3785 81.9352 29.4235L61.9231 51.8527V58.25C61.923 58.3065 61.9053 58.36 61.8747 58.4027C61.8443 58.4452 61.8035 58.4741 61.7603 58.4887L48.3757 62.9888C48.343 62.9998 48.3088 63.0027 48.2754 62.9975C48.2421 62.9924 48.2091 62.9792 48.1794 62.9576C48.1497 62.936 48.1239 62.9064 48.1055 62.8702C48.087 62.8339 48.077 62.7927 48.0769 62.7501V51.8527L28.0648 29.4235C28.0249 29.3785 28.0001 29.3168 28 29.2504V20.2501C28 20.1782 28.0285 20.1127 28.0737 20.0671C28.1183 20.0221 28.1752 20 28.2308 20H81.7692C81.8248 20 81.8817 20.0221 81.9263 20.0671C81.9715 20.1127 82 20.1782 82 20.2501V29.2504Z" fill="#4A4A4A"/>
<path d="M54.8811 35.185C53.2213 35.185 51.876 33.8343 51.876 32.1744C51.876 30.5146 53.2267 29.1639 54.8811 29.1639C56.541 29.1639 57.8862 30.5146 57.8862 32.1744C57.8862 33.8343 56.5356 35.185 54.8811 35.185ZM54.8811 29.9558C53.6606 29.9558 52.6625 30.9539 52.6625 32.1744C52.6625 33.4004 53.6552 34.393 54.8811 34.393C56.1016 34.393 57.0943 33.4004 57.0943 32.1744C57.0943 30.9539 56.1016 29.9558 54.8811 29.9558Z" fill="#FE1113"/>
<path d="M54.8811 29.9559C53.6606 29.9559 52.6625 30.954 52.6625 32.1745C52.6625 33.4005 53.6552 34.3931 54.8811 34.3931C56.1016 34.3931 57.0943 33.4005 57.0943 32.1745C57.0943 30.954 56.1016 29.9559 54.8811 29.9559Z" fill="#FE1113"/>
<path d="M60.331 42.6199H49.6992C49.4873 42.6199 49.3125 42.4374 49.3125 42.2161C49.3125 40.3908 49.9323 38.8531 51.103 37.7689C52.136 36.812 53.5239 36.2866 55.0124 36.2866C56.501 36.2866 57.8889 36.812 58.9219 37.7689C60.082 38.842 60.7018 40.3686 60.7124 42.1718C60.7124 42.1829 60.7124 42.1995 60.7124 42.2106C60.7177 42.4374 60.5429 42.6199 60.331 42.6199ZM50.0965 41.8123H59.9284C59.7429 38.571 57.2903 37.0941 55.0124 37.0941C52.7346 37.0886 50.2872 38.571 50.0965 41.8123Z" fill="#FE1113"/>
<path d="M50.0965 41.8123H59.9284C59.7429 38.571 57.2903 37.0941 55.0124 37.0941C52.7346 37.0886 50.2872 38.571 50.0965 41.8123Z" fill="#FE1113"/>
<path d="M60.2374 79C63.1231 79 65.4624 76.6607 65.4624 73.775C65.4624 70.8894 63.1231 68.55 60.2374 68.55C57.3517 68.55 55.0124 70.8894 55.0124 73.775C55.0124 76.6607 57.3517 79 60.2374 79Z" fill="#FE1113"/>
<path d="M51.6875 72.35C52.9992 72.35 54.0625 71.2867 54.0625 69.975C54.0625 68.6633 52.9992 67.6 51.6875 67.6C50.3758 67.6 49.3125 68.6633 49.3125 69.975C49.3125 71.2867 50.3758 72.35 51.6875 72.35Z" fill="#FE1113"/>
</svg>
