<svg width="100" height="82" viewBox="0 0 100 82" fill="none" xmlns="http://www.w3.org/2000/svg">
<path d="M61.2006 27.5485C61.0246 27.5485 60.8486 27.4644 60.7415 27.3113C60.5655 27.0589 60.6267 26.7146 60.8792 26.531L76.7393 15.3532C76.9917 15.1772 77.336 15.2384 77.5196 15.4833C77.6956 15.7357 77.6344 16.08 77.3819 16.2636L61.5219 27.4414C61.4224 27.5179 61.3153 27.5485 61.2006 27.5485Z" fill="#FE1113"/>
<path d="M56.5643 27.9311C56.4802 27.9311 56.4037 27.9158 56.3195 27.8775L42.9613 21.4509C42.6858 21.3208 42.5634 20.9842 42.7011 20.7087C42.8312 20.4333 43.1678 20.3109 43.4433 20.4486L56.7938 26.8753C57.0693 27.013 57.1917 27.342 57.054 27.6174C56.9698 27.8163 56.7709 27.9311 56.5643 27.9311Z" fill="#FE1113"/>
<path d="M22.855 34.572C22.6943 34.572 22.526 34.5032 22.4189 34.3578C22.2276 34.113 22.2659 33.7687 22.5107 33.5698L38.3248 21.0149C38.5696 20.8236 38.9139 20.8619 39.1052 21.1067C39.2965 21.3515 39.2582 21.6958 39.0134 21.8947L23.1992 34.4496C23.0998 34.5261 22.9774 34.572 22.855 34.572Z" fill="#FE1113"/>
<path d="M20.7434 38.9483C18.9454 38.9483 17.4841 37.487 17.4841 35.689C17.4841 33.8911 18.9454 32.4298 20.7434 32.4298C22.5413 32.4298 23.9949 33.8911 23.9949 35.689C23.9949 37.487 22.5336 38.9483 20.7434 38.9483ZM20.7434 33.5468C19.5651 33.5468 18.6011 34.5108 18.6011 35.689C18.6011 36.8673 19.5651 37.8312 20.7434 37.8312C21.9216 37.8312 22.8856 36.8749 22.8856 35.689C22.8779 34.5108 21.9216 33.5468 20.7434 33.5468Z" fill="#FE1113"/>
<path d="M20.7434 33.5468C19.5651 33.5468 18.6011 34.5108 18.6011 35.689C18.6011 36.8673 19.5651 37.8312 20.7434 37.8312C21.9216 37.8312 22.8856 36.8749 22.8856 35.689C22.8779 34.5108 21.9216 33.5468 20.7434 33.5468Z" fill="#FE1113"/>
<path d="M40.7806 23.0269C38.9827 23.0269 37.5291 21.5656 37.5291 19.7677C37.5291 17.9698 38.9903 16.5085 40.7806 16.5085C42.5709 16.5085 44.0322 17.9698 44.0322 19.7677C44.0322 21.5656 42.5709 23.0269 40.7806 23.0269ZM40.7806 17.6331C39.6024 17.6331 38.6384 18.5895 38.6384 19.7754C38.6384 20.9536 39.5948 21.9176 40.7806 21.9176C41.9588 21.9176 42.9228 20.9536 42.9228 19.7754C42.9152 18.5895 41.9588 17.6331 40.7806 17.6331Z" fill="#FE1113"/>
<path d="M40.7806 17.6331C39.6024 17.6331 38.6384 18.5895 38.6384 19.7754C38.6384 20.9536 39.5948 21.9176 40.7806 21.9176C41.9588 21.9176 42.9228 20.9536 42.9228 19.7754C42.9152 18.5895 41.9588 17.6331 40.7806 17.6331Z" fill="#FE1113"/>
<path d="M58.9972 31.81C57.1993 31.81 55.7456 30.3487 55.7456 28.5508C55.7456 26.7529 57.2069 25.2992 58.9972 25.2992C60.7951 25.2992 62.2488 26.7605 62.2488 28.5508C62.2488 30.3487 60.7951 31.81 58.9972 31.81ZM58.9972 26.4086C57.819 26.4086 56.855 27.3649 56.855 28.5432C56.855 29.729 57.8113 30.6854 58.9972 30.6854C60.1754 30.6854 61.1394 29.7214 61.1394 28.5432C61.1394 27.3649 60.1754 26.4086 58.9972 26.4086Z" fill="#FE1113"/>
<path d="M58.9972 26.4086C57.819 26.4086 56.855 27.3649 56.855 28.5432C56.855 29.729 57.8113 30.6854 58.9972 30.6854C60.1754 30.6854 61.1394 29.7214 61.1394 28.5432C61.1394 27.3649 60.1754 26.4086 58.9972 26.4086Z" fill="#FE1113"/>
<path d="M79.2641 17.5184C77.4662 17.5184 76.0049 16.0571 76.0049 14.2592C76.0049 12.4613 77.4662 11 79.2641 11C81.062 11 82.5157 12.4613 82.5157 14.2592C82.5233 16.0571 81.062 17.5184 79.2641 17.5184ZM79.2641 12.117C78.0859 12.117 77.1219 13.081 77.1219 14.2592C77.1219 15.4374 78.0859 16.4014 79.2641 16.4014C80.4423 16.4014 81.4063 15.4374 81.4063 14.2592C81.4063 13.081 80.4423 12.117 79.2641 12.117Z" fill="#FE1113"/>
<path d="M79.2641 12.117C78.0859 12.117 77.1219 13.081 77.1219 14.2592C77.1219 15.4374 78.0859 16.4014 79.2641 16.4014C80.4423 16.4014 81.4063 15.4374 81.4063 14.2592C81.4063 13.081 80.4423 12.117 79.2641 12.117Z" fill="#FE1113"/>
<path fill-rule="evenodd" clip-rule="evenodd" d="M71 30V70H77V30H71ZM70 28C69.4477 28 69 28.4477 69 29V71C69 71.5523 69.4477 72 70 72H78C78.5523 72 79 71.5523 79 71V29C79 28.4477 78.5523 28 78 28H70Z" fill="#4A4A4A"/>
<path fill-rule="evenodd" clip-rule="evenodd" d="M55 39V70H61V39H55ZM54 37C53.4477 37 53 37.4477 53 38V71C53 71.5523 53.4477 72 54 72H62C62.5523 72 63 71.5523 63 71V38C63 37.4477 62.5523 37 62 37H54Z" fill="#4A4A4A"/>
<path d="M46 33H38C37.4477 33 37 33.4477 37 34V71C37 71.5523 37.4477 72 38 72H46C46.5523 72 47 71.5523 47 71V34C47 33.4477 46.5523 33 46 33Z" fill="#CCCCCC"/>
<path fill-rule="evenodd" clip-rule="evenodd" d="M23 57V70H29V57H23ZM22 55C21.4477 55 21 55.4477 21 56V71C21 71.5523 21.4477 72 22 72H30C30.5523 72 31 71.5523 31 71V56C31 55.4477 30.5523 55 30 55H22Z" fill="#4A4A4A"/>
<path fill-rule="evenodd" clip-rule="evenodd" d="M17 71C17 70.4477 17.4477 70 18 70H82C82.5523 70 83 70.4477 83 71C83 71.5523 82.5523 72 82 72H18C17.4477 72 17 71.5523 17 71Z" fill="#4A4A4A"/>
</svg>
