<svg width="110" height="82" viewBox="0 0 110 82" fill="none" xmlns="http://www.w3.org/2000/svg">
<path d="M51 26C44.9335 33.8552 44.1331 39.0452 45 49C52.1476 41.0835 54.0263 36.1738 51 26Z" fill="#CCCCCC"/>
<path d="M28.0833 37.8669H25.9167V32.2382L25.9378 31.3134L25.9728 30.3021C25.6129 30.6436 25.3628 30.8676 25.2226 30.9741L24.0447 31.8723L23 30.6347L26.3024 28.1397H28.0833V37.8669Z" fill="#FE1113"/>
<path d="M35.9991 29.7166C35.1811 29.7166 34.5478 30.0093 34.099 30.5948C33.6503 31.1759 33.4259 31.9876 33.4259 33.0299C33.4259 35.1989 34.2837 36.2834 35.9991 36.2834C36.719 36.2834 37.5907 36.1127 38.6144 35.7711V37.501C37.773 37.8337 36.8335 38 35.7958 38C34.3047 38 33.1642 37.572 32.3742 36.7159C31.5843 35.8554 31.1893 34.6223 31.1893 33.0166C31.1893 32.0053 31.3833 31.1204 31.7713 30.3619C32.1592 29.599 32.7155 29.0157 33.44 28.6121C34.1692 28.204 35.0222 28 35.9991 28C36.9947 28 37.995 28.2284 39 28.6853L38.2989 30.3619C37.9156 30.189 37.5299 30.0381 37.142 29.9095C36.754 29.7809 36.3731 29.7166 35.9991 29.7166Z" fill="#FE1113"/>
<path fill-rule="evenodd" clip-rule="evenodd" d="M31 54C42.598 54 52 44.598 52 33C52 21.402 42.598 12 31 12C19.402 12 10 21.402 10 33C10 44.598 19.402 54 31 54ZM31 55C43.1503 55 53 45.1503 53 33C53 20.8497 43.1503 11 31 11C18.8497 11 9 20.8497 9 33C9 45.1503 18.8497 55 31 55Z" fill="black"/>
<path fill-rule="evenodd" clip-rule="evenodd" d="M72.5 71C87.6878 71 100 58.6878 100 43.5C100 28.3122 87.6878 16 72.5 16C57.3122 16 45 28.3122 45 43.5C45 58.6878 57.3122 71 72.5 71ZM72.5 72C88.2401 72 101 59.2401 101 43.5C101 27.7599 88.2401 15 72.5 15C56.7599 15 44 27.7599 44 43.5C44 59.2401 56.7599 72 72.5 72Z" fill="black"/>
<path fill-rule="evenodd" clip-rule="evenodd" d="M31 12C19.402 12 10 21.402 10 33C10 44.598 19.402 54 31 54C42.598 54 52 44.598 52 33C52 21.402 42.598 12 31 12ZM8 33C8 20.2975 18.2975 10 31 10C43.7025 10 54 20.2975 54 33C54 45.7025 43.7025 56 31 56C18.2975 56 8 45.7025 8 33Z" fill="#4A4A4A"/>
<path fill-rule="evenodd" clip-rule="evenodd" d="M72.5 16C57.3122 16 45 28.3122 45 43.5C45 58.6878 57.3122 71 72.5 71C87.6878 71 100 58.6878 100 43.5C100 28.3122 87.6878 16 72.5 16ZM43 43.5C43 27.2076 56.2076 14 72.5 14C88.7924 14 102 27.2076 102 43.5C102 59.7924 88.7924 73 72.5 73C56.2076 73 43 59.7924 43 43.5Z" fill="#4A4A4A"/>
<path d="M60.0381 49.1979C60.0816 48.6246 60.2991 47.7174 60.5437 47.094C61.1147 45.6191 62.0336 44.5393 63.9856 43.0477C65.1112 42.1906 65.6223 41.6897 65.8344 41.2444C66.0192 40.8659 66.0247 40.1869 65.8507 39.8474C65.5897 39.3521 65.1329 39.1127 64.3228 39.0682C63.5126 39.0237 62.5937 39.2185 61.5877 39.6637C61.1854 39.8363 61.0657 39.8697 61.0168 39.814C60.9842 39.7806 60.8265 39.3632 60.6688 38.8901C60.4024 38.1053 60.3861 38.0274 60.4676 37.9662C60.6525 37.827 61.74 37.4207 62.3327 37.2649C63.2353 37.0311 63.7736 36.9755 64.7686 37.0089C65.7637 37.0423 66.1226 37.1146 66.8077 37.4486C68.0963 38.0775 68.738 39.519 68.4172 41.0719C68.1942 42.1461 67.5417 42.9865 65.9159 44.2666C64.7088 45.2239 64.2249 45.658 63.8715 46.0866C63.5833 46.4373 63.1809 47.133 63.0939 47.4391L63.0558 47.5671L65.8181 47.5782L68.5803 47.5949L68.5966 48.6135L68.6075 49.6264H60L60.0381 49.1979ZM74.0993 48.1237V46.6209L71.4241 46.6098L68.7434 46.5931L68.7325 45.7861L68.7217 44.979L71.7231 40.9995L74.7246 37.02H76.4102L76.4265 40.8158L76.4374 44.6173L77.3509 44.6284L78.2589 44.6451V46.5931L77.3509 46.6098L76.4374 46.6209V49.6264H74.0993V48.1237ZM73.0553 44.6173H74.0993V43.6599C74.1047 43.1312 74.1265 42.2852 74.1537 41.7787C74.1808 41.2722 74.1972 40.8604 74.1863 40.8492C74.17 40.827 71.4349 44.6006 71.4349 44.6506C71.4349 44.6729 71.5654 44.6729 71.7231 44.6506C71.8808 44.6284 72.4789 44.6173 73.0553 44.6173ZM84.811 47.005C83.2559 46.8213 81.8259 45.7861 81.1027 44.3111C80.9907 44.0667 80.8927 43.8158 80.8091 43.5598C80.6731 43.1256 80.6568 43.0143 80.6568 42.1962C80.6514 41.1498 80.7384 40.7435 81.1462 39.9365C82.2446 37.7603 84.773 36.7362 87.0078 37.5654C88.5139 38.1276 89.7645 39.5969 90.0038 41.083C90.1071 41.7342 90.1071 42.6247 89.9984 43.2536C89.7374 44.8343 88.3617 46.3426 86.7413 46.838C86.4042 46.9382 85.5179 47.0773 85.3004 47.0606C85.2569 47.0551 85.034 47.0328 84.811 47.005ZM86.1051 45.9252C86.5945 45.8195 87.2742 45.5078 87.6929 45.1794C88.5683 44.5059 89.1229 43.3427 89.1229 42.1683C89.128 41.1501 88.7358 40.172 88.0335 39.451C87.3311 38.73 86.3767 38.3257 85.382 38.328C83.9544 38.3184 82.6497 39.1531 82.0325 40.4708C81.7443 41.0774 81.641 41.5338 81.641 42.1683C81.6397 43.3079 82.1339 44.389 82.9895 45.1182C83.2297 45.2976 83.4844 45.4559 83.7507 45.5913C84.5392 45.9864 85.2787 46.0922 86.1051 45.9252Z" fill="#FE1113"/>
<path d="M85.0844 42.8829C85.0688 42.8389 85.0637 42.1291 85.0688 41.2983L85.0844 39.7852H85.8098L85.8253 40.9516L85.8357 42.1236L86.9393 42.1346L88.0378 42.1511V42.9214L86.5715 42.9379C85.4212 42.9489 85.0999 42.9379 85.0844 42.8829Z" fill="#FE1113"/>
</svg>
